<mxfile host="app.diagrams.net" agent="Mozilla/5.0 (Windows NT 10.0; Win64; x64; rv:143.0) Gecko/20100101 Firefox/143.0" version="28.2.5">
  <diagram name="Pagina-1" id="hhNvPukRQcHdG5Y-XMpl">
    <mxGraphModel dx="873" dy="434" grid="1" gridSize="10" guides="1" tooltips="1" connect="1" arrows="1" fold="1" page="1" pageScale="1" pageWidth="827" pageHeight="1169" math="0" shadow="0">
      <root>
        <mxCell id="0" />
        <mxCell id="1" parent="0" />
        <mxCell id="MSxo0X7yA8S4lxP46bbf-1" value="Studente" style="swimlane;fontStyle=0;childLayout=stackLayout;horizontal=1;startSize=30;horizontalStack=0;resizeParent=1;resizeParentMax=0;resizeLast=0;collapsible=1;marginBottom=0;whiteSpace=wrap;html=1;" parent="1" vertex="1">
          <mxGeometry x="511.76" y="210" width="175" height="210" as="geometry" />
        </mxCell>
        <mxCell id="MSxo0X7yA8S4lxP46bbf-2" value="+Matricola: String [1]" style="text;strokeColor=none;fillColor=none;align=left;verticalAlign=middle;spacingLeft=4;spacingRight=4;overflow=hidden;points=[[0,0.5],[1,0.5]];portConstraint=eastwest;rotatable=0;whiteSpace=wrap;html=1;" parent="MSxo0X7yA8S4lxP46bbf-1" vertex="1">
          <mxGeometry y="30" width="175" height="30" as="geometry" />
        </mxCell>
        <mxCell id="MSxo0X7yA8S4lxP46bbf-3" value="+Username: String [1]" style="text;strokeColor=none;fillColor=none;align=left;verticalAlign=middle;spacingLeft=4;spacingRight=4;overflow=hidden;points=[[0,0.5],[1,0.5]];portConstraint=eastwest;rotatable=0;whiteSpace=wrap;html=1;" parent="MSxo0X7yA8S4lxP46bbf-1" vertex="1">
          <mxGeometry y="60" width="175" height="30" as="geometry" />
        </mxCell>
        <mxCell id="MSxo0X7yA8S4lxP46bbf-4" value="+Email: String [1]" style="text;strokeColor=none;fillColor=none;align=left;verticalAlign=middle;spacingLeft=4;spacingRight=4;overflow=hidden;points=[[0,0.5],[1,0.5]];portConstraint=eastwest;rotatable=0;whiteSpace=wrap;html=1;" parent="MSxo0X7yA8S4lxP46bbf-1" vertex="1">
          <mxGeometry y="90" width="175" height="30" as="geometry" />
        </mxCell>
        <mxCell id="MSxo0X7yA8S4lxP46bbf-5" value="+Nome: String [1]" style="text;strokeColor=none;fillColor=none;align=left;verticalAlign=middle;spacingLeft=4;spacingRight=4;overflow=hidden;points=[[0,0.5],[1,0.5]];portConstraint=eastwest;rotatable=0;whiteSpace=wrap;html=1;" parent="MSxo0X7yA8S4lxP46bbf-1" vertex="1">
          <mxGeometry y="120" width="175" height="30" as="geometry" />
        </mxCell>
        <mxCell id="MSxo0X7yA8S4lxP46bbf-6" value="+Cognome: String [1]" style="text;strokeColor=none;fillColor=none;align=left;verticalAlign=middle;spacingLeft=4;spacingRight=4;overflow=hidden;points=[[0,0.5],[1,0.5]];portConstraint=eastwest;rotatable=0;whiteSpace=wrap;html=1;" parent="MSxo0X7yA8S4lxP46bbf-1" vertex="1">
          <mxGeometry y="150" width="175" height="30" as="geometry" />
        </mxCell>
        <mxCell id="MSxo0X7yA8S4lxP46bbf-7" value="+Password: String [1]" style="text;strokeColor=none;fillColor=none;align=left;verticalAlign=middle;spacingLeft=4;spacingRight=4;overflow=hidden;points=[[0,0.5],[1,0.5]];portConstraint=eastwest;rotatable=0;whiteSpace=wrap;html=1;" parent="MSxo0X7yA8S4lxP46bbf-1" vertex="1">
          <mxGeometry y="180" width="175" height="30" as="geometry" />
        </mxCell>
        <mxCell id="MSxo0X7yA8S4lxP46bbf-9" value="Oggetto" style="swimlane;fontStyle=0;childLayout=stackLayout;horizontal=1;startSize=30;horizontalStack=0;resizeParent=1;resizeParentMax=0;resizeLast=0;collapsible=1;marginBottom=0;whiteSpace=wrap;html=1;" parent="1" vertex="1">
          <mxGeometry x="505" y="522.01" width="190" height="90" as="geometry" />
        </mxCell>
        <mxCell id="MSxo0X7yA8S4lxP46bbf-10" value="+ImmagineOggetto: String [1]" style="text;strokeColor=none;fillColor=none;align=left;verticalAlign=middle;spacingLeft=4;spacingRight=4;overflow=hidden;points=[[0,0.5],[1,0.5]];portConstraint=eastwest;rotatable=0;whiteSpace=wrap;html=1;" parent="MSxo0X7yA8S4lxP46bbf-9" vertex="1">
          <mxGeometry y="30" width="190" height="30" as="geometry" />
        </mxCell>
        <mxCell id="MSxo0X7yA8S4lxP46bbf-13" value="+Descrizione: String [1]" style="text;strokeColor=none;fillColor=none;align=left;verticalAlign=middle;spacingLeft=4;spacingRight=4;overflow=hidden;points=[[0,0.5],[1,0.5]];portConstraint=eastwest;rotatable=0;whiteSpace=wrap;html=1;" parent="MSxo0X7yA8S4lxP46bbf-9" vertex="1">
          <mxGeometry y="60" width="190" height="30" as="geometry" />
        </mxCell>
        <mxCell id="MSxo0X7yA8S4lxP46bbf-14" value="Annuncio" style="swimlane;fontStyle=0;childLayout=stackLayout;horizontal=1;startSize=30;horizontalStack=0;resizeParent=1;resizeParentMax=0;resizeLast=0;collapsible=1;marginBottom=0;whiteSpace=wrap;html=1;" parent="1" vertex="1">
          <mxGeometry x="885.88" y="263.81999999999994" width="210" height="210" as="geometry" />
        </mxCell>
        <mxCell id="MSxo0X7yA8S4lxP46bbf-15" value="+Titolo: [1] String" style="text;strokeColor=none;fillColor=none;align=left;verticalAlign=middle;spacingLeft=4;spacingRight=4;overflow=hidden;points=[[0,0.5],[1,0.5]];portConstraint=eastwest;rotatable=0;whiteSpace=wrap;html=1;" parent="MSxo0X7yA8S4lxP46bbf-14" vertex="1">
          <mxGeometry y="30" width="210" height="30" as="geometry" />
        </mxCell>
        <mxCell id="MSxo0X7yA8S4lxP46bbf-16" value="+StatoAnnuncio: [1] Boolean" style="text;strokeColor=none;fillColor=none;align=left;verticalAlign=middle;spacingLeft=4;spacingRight=4;overflow=hidden;points=[[0,0.5],[1,0.5]];portConstraint=eastwest;rotatable=0;whiteSpace=wrap;html=1;" parent="MSxo0X7yA8S4lxP46bbf-14" vertex="1">
          <mxGeometry y="60" width="210" height="30" as="geometry" />
        </mxCell>
        <mxCell id="MSxo0X7yA8S4lxP46bbf-17" value="+FasciaOrariaInizio: [1] String" style="text;strokeColor=none;fillColor=none;align=left;verticalAlign=middle;spacingLeft=4;spacingRight=4;overflow=hidden;points=[[0,0.5],[1,0.5]];portConstraint=eastwest;rotatable=0;whiteSpace=wrap;html=1;" parent="MSxo0X7yA8S4lxP46bbf-14" vertex="1">
          <mxGeometry y="90" width="210" height="30" as="geometry" />
        </mxCell>
        <mxCell id="MSxo0X7yA8S4lxP46bbf-18" value="+FasciaOrariaFine: [1]&amp;nbsp;String" style="text;strokeColor=none;fillColor=none;align=left;verticalAlign=middle;spacingLeft=4;spacingRight=4;overflow=hidden;points=[[0,0.5],[1,0.5]];portConstraint=eastwest;rotatable=0;whiteSpace=wrap;html=1;" parent="MSxo0X7yA8S4lxP46bbf-14" vertex="1">
          <mxGeometry y="120" width="210" height="30" as="geometry" />
        </mxCell>
        <mxCell id="MSxo0X7yA8S4lxP46bbf-19" value="+Descrizione: [1] String" style="text;strokeColor=none;fillColor=none;align=left;verticalAlign=middle;spacingLeft=4;spacingRight=4;overflow=hidden;points=[[0,0.5],[1,0.5]];portConstraint=eastwest;rotatable=0;whiteSpace=wrap;html=1;" parent="MSxo0X7yA8S4lxP46bbf-14" vertex="1">
          <mxGeometry y="150" width="210" height="30" as="geometry" />
        </mxCell>
        <mxCell id="MSxo0X7yA8S4lxP46bbf-20" value="+Sede: [1]: String" style="text;strokeColor=none;fillColor=none;align=left;verticalAlign=middle;spacingLeft=4;spacingRight=4;overflow=hidden;points=[[0,0.5],[1,0.5]];portConstraint=eastwest;rotatable=0;whiteSpace=wrap;html=1;" parent="MSxo0X7yA8S4lxP46bbf-14" vertex="1">
          <mxGeometry y="180" width="210" height="30" as="geometry" />
        </mxCell>
        <mxCell id="MSxo0X7yA8S4lxP46bbf-21" value="" style="triangle;whiteSpace=wrap;html=1;rotation=-120;" parent="1" vertex="1">
          <mxGeometry x="1046.76" y="470" width="26.76" height="30.81" as="geometry" />
        </mxCell>
        <mxCell id="MSxo0X7yA8S4lxP46bbf-22" value="" style="triangle;whiteSpace=wrap;html=1;rotation=-90;" parent="1" vertex="1">
          <mxGeometry x="979.44" y="470" width="22.87" height="30.81" as="geometry" />
        </mxCell>
        <mxCell id="MSxo0X7yA8S4lxP46bbf-23" value="" style="triangle;whiteSpace=wrap;html=1;rotation=-65;" parent="1" vertex="1">
          <mxGeometry x="894.115" y="473.8149999999998" width="26.76" height="30.81" as="geometry" />
        </mxCell>
        <mxCell id="MSxo0X7yA8S4lxP46bbf-24" value="" style="endArrow=none;html=1;rounded=0;entryX=0;entryY=0.5;entryDx=0;entryDy=0;exitX=0.25;exitY=0;exitDx=0;exitDy=0;" parent="1" source="MSxo0X7yA8S4lxP46bbf-27" target="MSxo0X7yA8S4lxP46bbf-21" edge="1">
          <mxGeometry width="50" height="50" relative="1" as="geometry">
            <mxPoint x="870.88" y="633.4200000000001" as="sourcePoint" />
            <mxPoint x="900.88" y="562.22" as="targetPoint" />
          </mxGeometry>
        </mxCell>
        <mxCell id="MSxo0X7yA8S4lxP46bbf-25" value="" style="endArrow=none;html=1;rounded=0;entryX=0;entryY=0.5;entryDx=0;entryDy=0;exitX=0.5;exitY=0;exitDx=0;exitDy=0;" parent="1" target="MSxo0X7yA8S4lxP46bbf-22" edge="1">
          <mxGeometry width="50" height="50" relative="1" as="geometry">
            <mxPoint x="990.88" y="633.4200000000001" as="sourcePoint" />
            <mxPoint x="990.8830861774546" y="560.2011949455521" as="targetPoint" />
          </mxGeometry>
        </mxCell>
        <mxCell id="MSxo0X7yA8S4lxP46bbf-26" value="" style="endArrow=none;html=1;rounded=0;entryX=0;entryY=0.5;entryDx=0;entryDy=0;exitX=0.5;exitY=0;exitDx=0;exitDy=0;" parent="1" source="MSxo0X7yA8S4lxP46bbf-30" target="MSxo0X7yA8S4lxP46bbf-23" edge="1">
          <mxGeometry width="50" height="50" relative="1" as="geometry">
            <mxPoint x="1090.88" y="613.4200000000001" as="sourcePoint" />
            <mxPoint x="1070.88" y="583.4200000000001" as="targetPoint" />
          </mxGeometry>
        </mxCell>
        <mxCell id="MSxo0X7yA8S4lxP46bbf-27" value="AnnuncioVendita" style="swimlane;fontStyle=0;childLayout=stackLayout;horizontal=1;startSize=30;horizontalStack=0;resizeParent=1;resizeParentMax=0;resizeLast=0;collapsible=1;marginBottom=0;whiteSpace=wrap;html=1;" parent="1" vertex="1">
          <mxGeometry x="1109.99" y="620" width="140" height="60" as="geometry" />
        </mxCell>
        <mxCell id="MSxo0X7yA8S4lxP46bbf-28" value="+Prezzo: [1] Float" style="text;strokeColor=none;fillColor=none;align=left;verticalAlign=middle;spacingLeft=4;spacingRight=4;overflow=hidden;points=[[0,0.5],[1,0.5]];portConstraint=eastwest;rotatable=0;whiteSpace=wrap;html=1;" parent="MSxo0X7yA8S4lxP46bbf-27" vertex="1">
          <mxGeometry y="30" width="140" height="30" as="geometry" />
        </mxCell>
        <mxCell id="yPO96YD2bqF4xWy6sEOM-47" style="edgeStyle=orthogonalEdgeStyle;rounded=0;orthogonalLoop=1;jettySize=auto;html=1;exitX=0.5;exitY=1;exitDx=0;exitDy=0;entryX=0.5;entryY=0;entryDx=0;entryDy=0;endArrow=none;endFill=0;" parent="1" source="MSxo0X7yA8S4lxP46bbf-29" target="yPO96YD2bqF4xWy6sEOM-13" edge="1">
          <mxGeometry relative="1" as="geometry" />
        </mxCell>
        <mxCell id="MSxo0X7yA8S4lxP46bbf-29" value="AnnuncioRegalo" style="swimlane;fontStyle=0;childLayout=stackLayout;horizontal=1;startSize=30;horizontalStack=0;resizeParent=1;resizeParentMax=0;resizeLast=0;collapsible=1;marginBottom=0;whiteSpace=wrap;html=1;" parent="1" vertex="1">
          <mxGeometry x="933.52" y="620" width="140" height="60" as="geometry" />
        </mxCell>
        <mxCell id="yPO96YD2bqF4xWy6sEOM-46" style="edgeStyle=orthogonalEdgeStyle;rounded=0;orthogonalLoop=1;jettySize=auto;html=1;exitX=0.5;exitY=1;exitDx=0;exitDy=0;endArrow=none;endFill=0;" parent="1" source="MSxo0X7yA8S4lxP46bbf-30" edge="1">
          <mxGeometry relative="1" as="geometry">
            <mxPoint x="836" y="950" as="targetPoint" />
            <Array as="points">
              <mxPoint x="836" y="960" />
            </Array>
          </mxGeometry>
        </mxCell>
        <mxCell id="MSxo0X7yA8S4lxP46bbf-30" value="AnnuncioScambio" style="swimlane;fontStyle=0;childLayout=stackLayout;horizontal=1;startSize=30;horizontalStack=0;resizeParent=1;resizeParentMax=0;resizeLast=0;collapsible=1;marginBottom=0;whiteSpace=wrap;html=1;" parent="1" vertex="1">
          <mxGeometry x="765.88" y="620" width="140" height="60" as="geometry" />
        </mxCell>
        <mxCell id="MSxo0X7yA8S4lxP46bbf-31" value="" style="endArrow=none;dashed=1;html=1;rounded=0;" parent="1" edge="1">
          <mxGeometry width="50" height="50" relative="1" as="geometry">
            <mxPoint x="790.88" y="573.4200000000001" as="sourcePoint" />
            <mxPoint x="1230.88" y="573.4200000000001" as="targetPoint" />
          </mxGeometry>
        </mxCell>
        <mxCell id="MSxo0X7yA8S4lxP46bbf-32" value="{totale/disgiunta}" style="text;strokeColor=none;fillColor=none;align=left;verticalAlign=middle;spacingLeft=4;spacingRight=4;overflow=hidden;points=[[0,0.5],[1,0.5]];portConstraint=eastwest;rotatable=0;whiteSpace=wrap;html=1;" parent="1" vertex="1">
          <mxGeometry x="1120.88" y="543.4200000000001" width="100" height="30" as="geometry" />
        </mxCell>
        <mxCell id="MSxo0X7yA8S4lxP46bbf-33" value="" style="endArrow=none;html=1;rounded=0;exitX=0;exitY=0.5;exitDx=0;exitDy=0;entryX=1;entryY=0.5;entryDx=0;entryDy=0;" parent="1" source="MSxo0X7yA8S4lxP46bbf-15" target="MSxo0X7yA8S4lxP46bbf-6" edge="1">
          <mxGeometry width="50" height="50" relative="1" as="geometry">
            <mxPoint x="737.5" y="340" as="sourcePoint" />
            <mxPoint x="650" y="260" as="targetPoint" />
          </mxGeometry>
        </mxCell>
        <mxCell id="MSxo0X7yA8S4lxP46bbf-53" value="" style="endArrow=none;html=1;rounded=0;entryX=0;entryY=0.5;entryDx=0;entryDy=0;exitX=1;exitY=0;exitDx=0;exitDy=0;" parent="1" source="MSxo0X7yA8S4lxP46bbf-9" target="MSxo0X7yA8S4lxP46bbf-18" edge="1">
          <mxGeometry width="50" height="50" relative="1" as="geometry">
            <mxPoint x="695" y="465" as="sourcePoint" />
            <mxPoint x="672.5" y="490" as="targetPoint" />
          </mxGeometry>
        </mxCell>
        <mxCell id="MSxo0X7yA8S4lxP46bbf-58" value="" style="endArrow=none;html=1;rounded=0;exitX=0.5;exitY=0;exitDx=0;exitDy=0;entryX=0.5;entryY=1;entryDx=0;entryDy=0;" parent="1" source="MSxo0X7yA8S4lxP46bbf-9" target="MSxo0X7yA8S4lxP46bbf-1" edge="1">
          <mxGeometry width="50" height="50" relative="1" as="geometry">
            <mxPoint x="595" y="520" as="sourcePoint" />
            <mxPoint x="595" y="350" as="targetPoint" />
          </mxGeometry>
        </mxCell>
        <mxCell id="MSxo0X7yA8S4lxP46bbf-59" value="+Pubblica&lt;div&gt;0..*&lt;/div&gt;" style="text;html=1;align=center;verticalAlign=middle;resizable=0;points=[];autosize=1;strokeColor=none;fillColor=none;" parent="1" vertex="1">
          <mxGeometry x="814.12" y="270" width="80" height="40" as="geometry" />
        </mxCell>
        <mxCell id="MSxo0X7yA8S4lxP46bbf-60" value="+è pubblicato da&lt;div&gt;1&lt;/div&gt;" style="text;html=1;align=center;verticalAlign=middle;resizable=0;points=[];autosize=1;strokeColor=none;fillColor=none;" parent="1" vertex="1">
          <mxGeometry x="690" y="300" width="110" height="40" as="geometry" />
        </mxCell>
        <mxCell id="MSxo0X7yA8S4lxP46bbf-61" value="+Posseduto da&lt;div&gt;1&lt;/div&gt;" style="text;html=1;align=center;verticalAlign=middle;resizable=0;points=[];autosize=1;strokeColor=none;fillColor=none;" parent="1" vertex="1">
          <mxGeometry x="600" y="420" width="100" height="40" as="geometry" />
        </mxCell>
        <mxCell id="MSxo0X7yA8S4lxP46bbf-62" value="+Possiede&lt;div&gt;0..*&lt;/div&gt;" style="text;html=1;align=center;verticalAlign=middle;resizable=0;points=[];autosize=1;strokeColor=none;fillColor=none;" parent="1" vertex="1">
          <mxGeometry x="606.76" y="482.01" width="80" height="40" as="geometry" />
        </mxCell>
        <mxCell id="MSxo0X7yA8S4lxP46bbf-63" value="+Propone&lt;div&gt;1&lt;/div&gt;" style="text;html=1;align=center;verticalAlign=middle;resizable=0;points=[];autosize=1;strokeColor=none;fillColor=none;" parent="1" vertex="1">
          <mxGeometry x="685.88" y="522.01" width="80" height="40" as="geometry" />
        </mxCell>
        <mxCell id="MSxo0X7yA8S4lxP46bbf-64" value="+Appartiene a&lt;div&gt;0..1&lt;/div&gt;" style="text;html=1;align=center;verticalAlign=middle;resizable=0;points=[];autosize=1;strokeColor=none;fillColor=none;" parent="1" vertex="1">
          <mxGeometry x="785.88" y="450" width="100" height="40" as="geometry" />
        </mxCell>
        <mxCell id="yPO96YD2bqF4xWy6sEOM-4" value="Offerta" style="swimlane;fontStyle=0;childLayout=stackLayout;horizontal=1;startSize=30;horizontalStack=0;resizeParent=1;resizeParentMax=0;resizeLast=0;collapsible=1;marginBottom=0;whiteSpace=wrap;html=1;" parent="1" vertex="1">
          <mxGeometry x="901.02" y="1190" width="205" height="60" as="geometry" />
        </mxCell>
        <mxCell id="yPO96YD2bqF4xWy6sEOM-5" value="+StatoOfferta: [1] StatoOfferta" style="text;strokeColor=none;fillColor=none;align=left;verticalAlign=middle;spacingLeft=4;spacingRight=4;overflow=hidden;points=[[0,0.5],[1,0.5]];portConstraint=eastwest;rotatable=0;whiteSpace=wrap;html=1;" parent="yPO96YD2bqF4xWy6sEOM-4" vertex="1">
          <mxGeometry y="30" width="205" height="30" as="geometry" />
        </mxCell>
        <mxCell id="yPO96YD2bqF4xWy6sEOM-6" value="" style="triangle;whiteSpace=wrap;html=1;rotation=60;" parent="1" vertex="1">
          <mxGeometry x="923.52" y="1159.19" width="26.76" height="30.81" as="geometry" />
        </mxCell>
        <mxCell id="yPO96YD2bqF4xWy6sEOM-7" value="" style="triangle;whiteSpace=wrap;html=1;rotation=90;" parent="1" vertex="1">
          <mxGeometry x="990.1430861774547" y="1159.1861949455522" width="26.76" height="30.81" as="geometry" />
        </mxCell>
        <mxCell id="yPO96YD2bqF4xWy6sEOM-8" value="" style="triangle;whiteSpace=wrap;html=1;rotation=120;" parent="1" vertex="1">
          <mxGeometry x="1056.755" y="1159.1850000000002" width="26.76" height="30.81" as="geometry" />
        </mxCell>
        <mxCell id="yPO96YD2bqF4xWy6sEOM-12" value="OffertaScambio" style="swimlane;fontStyle=0;childLayout=stackLayout;horizontal=1;startSize=30;horizontalStack=0;resizeParent=1;resizeParentMax=0;resizeLast=0;collapsible=1;marginBottom=0;whiteSpace=wrap;html=1;" parent="1" vertex="1">
          <mxGeometry x="743.37" y="960" width="162.51" height="60" as="geometry" />
        </mxCell>
        <mxCell id="yPO96YD2bqF4xWy6sEOM-13" value="OffertaRegalo" style="swimlane;fontStyle=0;childLayout=stackLayout;horizontal=1;startSize=30;horizontalStack=0;resizeParent=1;resizeParentMax=0;resizeLast=0;collapsible=1;marginBottom=0;whiteSpace=wrap;html=1;" parent="1" vertex="1">
          <mxGeometry x="923.52" y="960" width="160" height="60" as="geometry" />
        </mxCell>
        <mxCell id="yPO96YD2bqF4xWy6sEOM-14" value="+Motivazione: [0..1] String" style="text;strokeColor=none;fillColor=none;align=left;verticalAlign=middle;spacingLeft=4;spacingRight=4;overflow=hidden;points=[[0,0.5],[1,0.5]];portConstraint=eastwest;rotatable=0;whiteSpace=wrap;html=1;" parent="yPO96YD2bqF4xWy6sEOM-13" vertex="1">
          <mxGeometry y="30" width="160" height="30" as="geometry" />
        </mxCell>
        <mxCell id="yPO96YD2bqF4xWy6sEOM-15" value="OffertaVendita" style="swimlane;fontStyle=0;childLayout=stackLayout;horizontal=1;startSize=30;horizontalStack=0;resizeParent=1;resizeParentMax=0;resizeLast=0;collapsible=1;marginBottom=0;whiteSpace=wrap;html=1;" parent="1" vertex="1">
          <mxGeometry x="1100.88" y="960" width="165" height="60" as="geometry" />
        </mxCell>
        <mxCell id="yPO96YD2bqF4xWy6sEOM-16" value="+PrezzoOfferto: [1] Float" style="text;strokeColor=none;fillColor=none;align=left;verticalAlign=middle;spacingLeft=4;spacingRight=4;overflow=hidden;points=[[0,0.5],[1,0.5]];portConstraint=eastwest;rotatable=0;whiteSpace=wrap;html=1;" parent="yPO96YD2bqF4xWy6sEOM-15" vertex="1">
          <mxGeometry y="30" width="165" height="30" as="geometry" />
        </mxCell>
        <mxCell id="yPO96YD2bqF4xWy6sEOM-17" value="" style="endArrow=none;dashed=1;html=1;rounded=0;" parent="1" edge="1">
          <mxGeometry width="50" height="50" relative="1" as="geometry">
            <mxPoint x="814.12" y="1087.99" as="sourcePoint" />
            <mxPoint x="1254.12" y="1087.99" as="targetPoint" />
          </mxGeometry>
        </mxCell>
        <mxCell id="yPO96YD2bqF4xWy6sEOM-18" value="{totale/disgiunta}" style="text;strokeColor=none;fillColor=none;align=left;verticalAlign=middle;spacingLeft=4;spacingRight=4;overflow=hidden;points=[[0,0.5],[1,0.5]];portConstraint=eastwest;rotatable=0;whiteSpace=wrap;html=1;" parent="1" vertex="1">
          <mxGeometry x="1160" y="1057.99" width="100" height="30" as="geometry" />
        </mxCell>
        <mxCell id="yPO96YD2bqF4xWy6sEOM-19" value="&lt;div&gt;&lt;b&gt;&amp;lt;&amp;lt;enumeration&amp;gt;&amp;gt;&lt;/b&gt;&lt;/div&gt;&lt;div&gt;&lt;b&gt;StatoOfferta&lt;/b&gt;&lt;/div&gt;" style="swimlane;fontStyle=0;childLayout=stackLayout;horizontal=1;startSize=30;horizontalStack=0;resizeParent=1;resizeParentMax=0;resizeLast=0;collapsible=1;marginBottom=0;whiteSpace=wrap;html=1;" parent="1" vertex="1">
          <mxGeometry x="1200" y="1159.19" width="190" height="120" as="geometry" />
        </mxCell>
        <mxCell id="yPO96YD2bqF4xWy6sEOM-20" value="Accettata" style="text;strokeColor=none;fillColor=none;align=center;verticalAlign=middle;spacingLeft=4;spacingRight=4;overflow=hidden;points=[[0,0.5],[1,0.5]];portConstraint=eastwest;rotatable=0;whiteSpace=wrap;html=1;" parent="yPO96YD2bqF4xWy6sEOM-19" vertex="1">
          <mxGeometry y="30" width="190" height="30" as="geometry" />
        </mxCell>
        <mxCell id="yPO96YD2bqF4xWy6sEOM-21" value="Rifiutata" style="text;strokeColor=none;fillColor=none;align=center;verticalAlign=middle;spacingLeft=4;spacingRight=4;overflow=hidden;points=[[0,0.5],[1,0.5]];portConstraint=eastwest;rotatable=0;whiteSpace=wrap;html=1;" parent="yPO96YD2bqF4xWy6sEOM-19" vertex="1">
          <mxGeometry y="60" width="190" height="30" as="geometry" />
        </mxCell>
        <mxCell id="yPO96YD2bqF4xWy6sEOM-22" value="Attesa" style="text;strokeColor=none;fillColor=none;align=center;verticalAlign=middle;spacingLeft=4;spacingRight=4;overflow=hidden;points=[[0,0.5],[1,0.5]];portConstraint=eastwest;rotatable=0;whiteSpace=wrap;html=1;" parent="yPO96YD2bqF4xWy6sEOM-19" vertex="1">
          <mxGeometry y="90" width="190" height="30" as="geometry" />
        </mxCell>
        <mxCell id="yPO96YD2bqF4xWy6sEOM-41" style="edgeStyle=orthogonalEdgeStyle;rounded=0;orthogonalLoop=1;jettySize=auto;html=1;exitX=0;exitY=0.5;exitDx=0;exitDy=0;entryX=0;entryY=0.5;entryDx=0;entryDy=0;endArrow=none;endFill=0;" parent="1" target="yPO96YD2bqF4xWy6sEOM-12" edge="1">
          <mxGeometry relative="1" as="geometry">
            <Array as="points">
              <mxPoint x="420" y="597" />
              <mxPoint x="420" y="990" />
            </Array>
            <mxPoint x="505" y="597.01" as="sourcePoint" />
          </mxGeometry>
        </mxCell>
        <mxCell id="yPO96YD2bqF4xWy6sEOM-48" style="edgeStyle=orthogonalEdgeStyle;rounded=0;orthogonalLoop=1;jettySize=auto;html=1;exitX=0.5;exitY=1;exitDx=0;exitDy=0;entryX=0.5;entryY=0;entryDx=0;entryDy=0;endArrow=none;endFill=0;" parent="1" edge="1">
          <mxGeometry relative="1" as="geometry">
            <mxPoint x="1179.54" y="680" as="sourcePoint" />
            <mxPoint x="1179.54" y="960" as="targetPoint" />
          </mxGeometry>
        </mxCell>
        <mxCell id="yPO96YD2bqF4xWy6sEOM-49" value="" style="endArrow=none;html=1;rounded=0;exitX=0;exitY=0.5;exitDx=0;exitDy=0;" parent="1" source="yPO96YD2bqF4xWy6sEOM-6" edge="1">
          <mxGeometry width="50" height="50" relative="1" as="geometry">
            <mxPoint x="960" y="1150" as="sourcePoint" />
            <mxPoint x="840" y="1020" as="targetPoint" />
          </mxGeometry>
        </mxCell>
        <mxCell id="yPO96YD2bqF4xWy6sEOM-50" value="" style="endArrow=none;html=1;rounded=0;exitX=0;exitY=0.5;exitDx=0;exitDy=0;" parent="1" source="yPO96YD2bqF4xWy6sEOM-7" edge="1">
          <mxGeometry width="50" height="50" relative="1" as="geometry">
            <mxPoint x="952.31" y="1070" as="sourcePoint" />
            <mxPoint x="1002.31" y="1020" as="targetPoint" />
          </mxGeometry>
        </mxCell>
        <mxCell id="yPO96YD2bqF4xWy6sEOM-51" value="" style="endArrow=none;html=1;rounded=0;exitX=0;exitY=0.5;exitDx=0;exitDy=0;" parent="1" source="yPO96YD2bqF4xWy6sEOM-8" edge="1">
          <mxGeometry width="50" height="50" relative="1" as="geometry">
            <mxPoint x="1130" y="1070" as="sourcePoint" />
            <mxPoint x="1180" y="1020" as="targetPoint" />
          </mxGeometry>
        </mxCell>
        <mxCell id="yPO96YD2bqF4xWy6sEOM-53" value="+Ha&lt;div&gt;0.*&lt;/div&gt;" style="text;html=1;align=center;verticalAlign=middle;resizable=0;points=[];autosize=1;strokeColor=none;fillColor=none;" parent="1" vertex="1">
          <mxGeometry x="844.11" y="910" width="50" height="40" as="geometry" />
        </mxCell>
        <mxCell id="yPO96YD2bqF4xWy6sEOM-54" value="+Ha&lt;div&gt;0.*&lt;/div&gt;" style="text;html=1;align=center;verticalAlign=middle;resizable=0;points=[];autosize=1;strokeColor=none;fillColor=none;" parent="1" vertex="1">
          <mxGeometry x="1010" y="910" width="50" height="40" as="geometry" />
        </mxCell>
        <mxCell id="yPO96YD2bqF4xWy6sEOM-55" value="+Ha&lt;div&gt;0.*&lt;/div&gt;" style="text;html=1;align=center;verticalAlign=middle;resizable=0;points=[];autosize=1;strokeColor=none;fillColor=none;" parent="1" vertex="1">
          <mxGeometry x="1199.99" y="910" width="50" height="40" as="geometry" />
        </mxCell>
        <mxCell id="yPO96YD2bqF4xWy6sEOM-56" value="+Riferita a&lt;div&gt;1&lt;/div&gt;" style="text;html=1;align=center;verticalAlign=middle;resizable=0;points=[];autosize=1;strokeColor=none;fillColor=none;" parent="1" vertex="1">
          <mxGeometry x="844.11" y="690" width="80" height="40" as="geometry" />
        </mxCell>
        <mxCell id="yPO96YD2bqF4xWy6sEOM-59" value="+Riferita a&lt;div&gt;1&lt;/div&gt;" style="text;html=1;align=center;verticalAlign=middle;resizable=0;points=[];autosize=1;strokeColor=none;fillColor=none;" parent="1" vertex="1">
          <mxGeometry x="1020.1399999999999" y="690" width="80" height="40" as="geometry" />
        </mxCell>
        <mxCell id="yPO96YD2bqF4xWy6sEOM-60" value="+Riferita a&lt;div&gt;1&lt;/div&gt;" style="text;html=1;align=center;verticalAlign=middle;resizable=0;points=[];autosize=1;strokeColor=none;fillColor=none;" parent="1" vertex="1">
          <mxGeometry x="1195" y="690" width="80" height="40" as="geometry" />
        </mxCell>
        <mxCell id="yPO96YD2bqF4xWy6sEOM-61" value="+È offerto in&lt;div&gt;0..*&lt;/div&gt;" style="text;html=1;align=center;verticalAlign=middle;resizable=0;points=[];autosize=1;strokeColor=none;fillColor=none;" parent="1" vertex="1">
          <mxGeometry x="640" y="940" width="90" height="40" as="geometry" />
        </mxCell>
        <mxCell id="yPO96YD2bqF4xWy6sEOM-62" value="+Propone&lt;div&gt;1.*&lt;/div&gt;" style="text;html=1;align=center;verticalAlign=middle;resizable=0;points=[];autosize=1;strokeColor=none;fillColor=none;" parent="1" vertex="1">
          <mxGeometry x="425" y="550" width="80" height="40" as="geometry" />
        </mxCell>
        <mxCell id="yPO96YD2bqF4xWy6sEOM-63" style="edgeStyle=orthogonalEdgeStyle;rounded=0;orthogonalLoop=1;jettySize=auto;html=1;exitX=0;exitY=0.5;exitDx=0;exitDy=0;endArrow=none;endFill=0;" parent="1" source="MSxo0X7yA8S4lxP46bbf-4" edge="1">
          <mxGeometry relative="1" as="geometry">
            <mxPoint x="900" y="1220" as="targetPoint" />
            <Array as="points">
              <mxPoint x="340" y="315" />
              <mxPoint x="340" y="1220" />
              <mxPoint x="901" y="1220" />
            </Array>
          </mxGeometry>
        </mxCell>
        <mxCell id="yPO96YD2bqF4xWy6sEOM-64" value="+Fa&lt;div&gt;0.*&lt;/div&gt;" style="text;html=1;align=center;verticalAlign=middle;resizable=0;points=[];autosize=1;strokeColor=none;fillColor=none;" parent="1" vertex="1">
          <mxGeometry x="844.11" y="1170" width="40" height="40" as="geometry" />
        </mxCell>
        <mxCell id="yPO96YD2bqF4xWy6sEOM-66" value="+fatta da&lt;div&gt;1&lt;/div&gt;" style="text;html=1;align=center;verticalAlign=middle;resizable=0;points=[];autosize=1;strokeColor=none;fillColor=none;" parent="1" vertex="1">
          <mxGeometry x="435" y="270" width="70" height="40" as="geometry" />
        </mxCell>
        <mxCell id="yPO96YD2bqF4xWy6sEOM-69" value="" style="endArrow=none;html=1;rounded=0;entryX=0.492;entryY=1.039;entryDx=0;entryDy=0;entryPerimeter=0;exitX=0.5;exitY=0;exitDx=0;exitDy=0;" parent="1" source="yPO96YD2bqF4xWy6sEOM-70" target="MSxo0X7yA8S4lxP46bbf-13" edge="1">
          <mxGeometry width="50" height="50" relative="1" as="geometry">
            <mxPoint x="598" y="770" as="sourcePoint" />
            <mxPoint x="630" y="720" as="targetPoint" />
          </mxGeometry>
        </mxCell>
        <mxCell id="yPO96YD2bqF4xWy6sEOM-70" value="Categoria" style="swimlane;fontStyle=0;childLayout=stackLayout;horizontal=1;startSize=30;horizontalStack=0;resizeParent=1;resizeParentMax=0;resizeLast=0;collapsible=1;marginBottom=0;whiteSpace=wrap;html=1;" parent="1" vertex="1">
          <mxGeometry x="518.89" y="760" width="160.74" height="70" as="geometry" />
        </mxCell>
        <mxCell id="yPO96YD2bqF4xWy6sEOM-71" value="+NomeCategoria: String [1]" style="text;strokeColor=none;fillColor=none;align=left;verticalAlign=middle;spacingLeft=4;spacingRight=4;overflow=hidden;points=[[0,0.5],[1,0.5]];portConstraint=eastwest;rotatable=0;whiteSpace=wrap;html=1;" parent="yPO96YD2bqF4xWy6sEOM-70" vertex="1">
          <mxGeometry y="30" width="160.74" height="40" as="geometry" />
        </mxCell>
        <mxCell id="yPO96YD2bqF4xWy6sEOM-72" value="+Appartiene a&lt;br&gt;1" style="text;html=1;align=center;verticalAlign=middle;resizable=0;points=[];autosize=1;strokeColor=none;fillColor=none;" parent="1" vertex="1">
          <mxGeometry x="600" y="720" width="100" height="40" as="geometry" />
        </mxCell>
        <mxCell id="yPO96YD2bqF4xWy6sEOM-73" value="+è di&lt;br&gt;0..*" style="text;html=1;align=center;verticalAlign=middle;resizable=0;points=[];autosize=1;strokeColor=none;fillColor=none;" parent="1" vertex="1">
          <mxGeometry x="621.76" y="650" width="50" height="40" as="geometry" />
        </mxCell>
      </root>
    </mxGraphModel>
  </diagram>
</mxfile>
